<svg xmlns="http://www.w3.org/2000/svg" width="1200" height="650" viewBox="0 0 1200 650" role="img" aria-labelledby="registrar-light-title registrar-light-desc">
  <title id="registrar-light-title">From namespace rules to a name</title>
  <desc id="registrar-light-desc">The namespace owner sets registration and ownership rules. Its Registrar contract checks eligibility, records the holder and applies the name lifetime. The issued name alice.nova is held by Alice's wallet.</desc>
  <rect width="1200" height="650" fill="#F5F7F6"/>
  <g font-family="Inter, Arial, sans-serif" fill="#16251E">
    <text x="48" y="78" font-size="22" font-weight="600" letter-spacing="2" fill="#65756D">ISSUING A NAME</text>
    <text x="48" y="132" font-size="42" font-weight="600" letter-spacing="-1.2">From namespace rules to a name.</text>
    <text x="48" y="175" font-size="24" fill="#65756D">The owner sets the policy. The Registrar applies it.</text>

    <g font-size="22" font-weight="500" fill="#65756D">
      <text x="48" y="230">01 / Set the rules</text>
      <text x="416" y="230">02 / Apply the rules</text>
      <text x="784" y="230">03 / Issue a name</text>
    </g>

    <g fill="#FFFFFF" stroke="#D9E2DC" stroke-width="2">
      <rect x="48" y="252" width="320" height="278" rx="12"/>
      <rect x="416" y="252" width="320" height="278" rx="12"/>
      <rect x="784" y="252" width="368" height="278" rx="12"/>
    </g>
    <g fill="none" stroke="#D9E2DC" stroke-width="2" stroke-linecap="round" stroke-linejoin="round">
      <path d="M48 318H368 M416 318H736 M784 318H1152"/>
      <path d="M378 391H404 M397 385L404 391L397 397"/>
      <path d="M746 391H772 M765 385L772 391L765 397"/>
    </g>

    <text x="76" y="295" font-size="28" font-weight="600" fill="#267254">nova</text>
    <text x="176" y="295" font-size="22" fill="#65756D">namespace</text>
    <text x="76" y="362" font-size="22" fill="#65756D">Registration</text>
    <text x="76" y="396" font-size="25" font-weight="500">Who can claim</text>
    <text x="76" y="452" font-size="22" fill="#65756D">Ownership</text>
    <text x="76" y="486" font-size="24" font-weight="500">How names are held</text>

    <text x="444" y="295" font-size="28" font-weight="600">Registrar</text>
    <g fill="none" stroke="#267254" stroke-width="2.5" stroke-linecap="round" stroke-linejoin="round">
      <path d="M445 370L451 376L463 363"/>
      <path d="M445 425L451 431L463 418"/>
      <path d="M445 480L451 486L463 473"/>
    </g>
    <g font-size="22">
      <text x="479" y="378">Checks eligibility</text>
      <text x="479" y="433">Records holder</text>
      <text x="479" y="488">Applies lifetime</text>
    </g>

    <text x="812" y="295" font-size="22" font-weight="500" fill="#65756D">Issued name</text>
    <rect x="812" y="347" width="312" height="64" rx="6" fill="#E5F1E9"/>
    <text x="837" y="391" font-size="40" font-weight="600" letter-spacing="-0.7" fill="#267254">alice.nova</text>
    <text x="812" y="452" font-size="22" fill="#65756D">Holder</text>
    <text x="812" y="486" font-size="25" font-weight="500">Alice’s wallet</text>

    <path d="M48 583H80" stroke="#267254" stroke-width="3"/>
    <text x="96" y="591" font-size="22" fill="#65756D">The holder manages the name within its namespace policy.</text>
  </g>
</svg>
